<svg id="Слой_1" data-name="Слой 1" xmlns="http://www.w3.org/2000/svg" xmlns:xlink="http://www.w3.org/1999/xlink" viewBox="0 0 1191 1429"><defs><style>.cls-1,.cls-3,.cls-6{fill:none;}.cls-1{stroke:#ffc700;stroke-width:8px;}.cls-2{fill:#ffc700;}.cls-3{stroke:#170429;stroke-width:5px;}.cls-4{fill:url(#Безымянный_градиент);}.cls-5{fill:#fff;}.cls-6{stroke:#f058e7;stroke-width:3px;}.cls-7{fill:#ed57e7;}</style><linearGradient id="Безымянный_градиент" x1="39.47" y1="406.31" x2="1185.47" y2="404.45" gradientTransform="matrix(1, 0, 0, -1, 0, 1430)" gradientUnits="userSpaceOnUse"><stop offset="0" stop-color="#8840f6"/><stop offset="1" stop-color="#ff5be5"/></linearGradient></defs><path class="cls-1" d="M42,83v84.5a46,46,0,0,0,46,46H1141a46,46,0,0,1,46,46v143a46,46,0,0,1-46,46H88a46,46,0,0,0-46,46V637a46,46,0,0,0,46,46H622.51"/><circle class="cls-1" cx="42.5" cy="42.5" r="38.5"/><circle class="cls-2" cx="42.5" cy="42.5" r="27.5"/><path class="cls-3" d="M28,45.38,37.55,53,58,33"/><circle class="cls-2" cx="288" cy="447" r="24"/><circle class="cls-2" cx="288" cy="682.5" r="24"/><path class="cls-3" d="M276,449.52l8.27,6.48L302,439"/><path class="cls-3" d="M276,684.77l8.27,6.48,17.73-17"/><circle class="cls-2" cx="647" cy="447" r="24"/><path class="cls-3" d="M634,449.52l8.27,6.48L660,439"/><circle class="cls-2" cx="1006" cy="447" r="24"/><path class="cls-3" d="M993,449.52l8.59,6.48L1020,439"/><circle class="cls-2" cx="288" cy="211" r="24"/><path class="cls-3" d="M276,213.52l8.27,6.48L302,203"/><circle class="cls-2" cx="647" cy="211" r="24"/><path class="cls-3" d="M634,213.52l8.27,6.48L660,203"/><circle class="cls-2" cx="1005" cy="211" r="24"/><path class="cls-3" d="M992,213.52l8.59,6.48L1019,203"/><path class="cls-4" d="M622.51,684l1.5,0,0-1.53h-1.53Zm45,0v-1.5H666l0,1.53Zm314,0,1.5,0,0-1.53h-1.53Zm45,0v-1.5H1025l0,1.53Zm0,210.5H1025V896h1.5Zm-45,0V896H983v-1.5Zm-314,0H666V896h1.5Zm-45,0V896H624v-1.5Zm-314,0H307V896h1.5Zm-45,0V896H265v-1.5Zm.81,245,1.45-.4-.31-1.1h-1.14Zm43.38,0V1138h-1.14l-.31,1.1Zm314.9,0,1.49-.13L624,1138h-1.37Zm44.82,0V1138H666l-.12,1.37Zm314.18,0,1.49-.13L983,1138h-1.37Zm44.82,0V1138H1025l-.12,1.37Zm-17.41,248V1386h-1.5v1.5Zm0,1h-1.5v1.5h1.5Zm17.48-250-1.5-.07-.07,1.57h1.57Zm-45,0v1.5h1.57l-.07-1.57Zm-314,0-1.5-.07-.07,1.57h1.57Zm-45,0v1.5h1.57l-.07-1.57Zm-314.58,0-1.46-.33-.42,1.83h1.88Zm-43.88,0v1.5h1.88l-.42-1.83Zm-.54-243,1.5-.07L265,894h-1.44Zm45,0V894H307l-.06,1.43Zm314,0,1.5-.07L624,894h-1.44Zm45,0V894H666l-.06,1.43Zm314,0,1.5-.07L983,894h-1.44Zm45,0V894H1025l-.06,1.43Zm0-212.5-1.5.1.1,1.4h1.4Zm-44.9,0v1.5H983l.1-1.4Zm-314.1,0-1.5.1.1,1.4h1.4Zm-44.9,0v1.5H624l.1-1.4Zm1.45,1.5c0-.16,0-.31,0-.47l-3-.06c0,.17,0,.35,0,.53Zm21,21a21,21,0,0,1-21-21h-3a24,24,0,0,0,24,24Zm21-21a21,21,0,0,1-21,21v3a24,24,0,0,0,24-24Zm0-.47c0,.16,0,.31,0,.47h3c0-.18,0-.36,0-.53Zm315.52-1.53h-314v3h314Zm1.49,2c0-.16,0-.31,0-.47l-3-.06c0,.17,0,.35,0,.53Zm21,21a21,21,0,0,1-21-21h-3a24,24,0,0,0,24,24Zm21-21a21,21,0,0,1-21,21v3a24,24,0,0,0,24-24Zm0-.47c0,.16,0,.31,0,.47h3c0-.18,0-.36,0-.53Zm114-1.53H1026.49v3H1139Zm47,47a47,47,0,0,0-47-47v3a44,44,0,0,1,44,44Zm0,119.5V729.5h-3V849Zm-47,47a47,47,0,0,0,47-47h-3a44,44,0,0,1-44,44Zm-112.5,0H1139v-3H1026.5ZM1004,873.5a21,21,0,0,1,21,21h3a24,24,0,0,0-24-24Zm-21,21a21,21,0,0,1,21-21v-3a24,24,0,0,0-24,24ZM667.5,896h314v-3h-314ZM645,873.5a21,21,0,0,1,21,21h3a24,24,0,0,0-24-24Zm-21,21a21,21,0,0,1,21-21v-3a24,24,0,0,0-24,24ZM308.5,896h314v-3h-314ZM286,873.5a21,21,0,0,1,21,21h3a24,24,0,0,0-24-24Zm-21,21a21,21,0,0,1,21-21v-3a24,24,0,0,0-24,24ZM86,896H263.5v-3H86ZM41,941a45,45,0,0,1,45-45v-3a48,48,0,0,0-48,48Zm0,152V941H38v152Zm45,45a45,45,0,0,1-45-45H38a48,48,0,0,0,48,48Zm178.31,0H86v3H264.31ZM286,1154.5a21,21,0,0,1-20.24-15.4l-2.9.8A24,24,0,0,0,286,1157.5Zm20.24-15.4A21,21,0,0,1,286,1154.5v3a24,24,0,0,0,23.14-17.6Zm316.35-1.1H307.69v3h314.9ZM645,1158.5a21,21,0,0,1-20.92-19.13l-3,.26A24,24,0,0,0,645,1161.5Zm20.92-19.13A21,21,0,0,1,645,1158.5v3a24,24,0,0,0,23.91-21.87ZM981.59,1138H667.41v3H981.59Zm22.41,20.5a21,21,0,0,1-20.92-19.13l-3,.26A24,24,0,0,0,1004,1161.5Zm20.92-19.13A21,21,0,0,1,1004,1158.5v3a24,24,0,0,0,23.91-21.87ZM1139,1138H1026.41v3H1139Zm47,47a47,47,0,0,0-47-47v3a44,44,0,0,1,44,44Zm0,157V1185h-3v157Zm-47,47a47,47,0,0,0,47-47h-3a44,44,0,0,1-44,44Zm-130,0h130v-3H1009Zm1.5-.5v-1h-3v1ZM1139,1387H1009v3h130Zm45-45a45,45,0,0,1-45,45v3a48,48,0,0,0,48-48Zm0-157v157h3V1185Zm-45-45a45,45,0,0,1,45,45h3a48,48,0,0,0-48-48Zm-112.52,0H1139v-3H1026.48Zm-1.48-2.5c0,.31,0,.62,0,.93l3,.14c0-.36,0-.71,0-1.07Zm-21-21a21,21,0,0,1,21,21h3a24,24,0,0,0-24-24Zm-21,21a21,21,0,0,1,21-21v-3a24,24,0,0,0-24,24Zm0,.93c0-.31,0-.62,0-.93h-3c0,.36,0,.71,0,1.07ZM667.48,1140h314v-3h-314Zm-1.48-2.5c0,.31,0,.62,0,.93l3,.14c0-.36,0-.71,0-1.07Zm-21-21a21,21,0,0,1,21,21h3a24,24,0,0,0-24-24Zm-21,21a21,21,0,0,1,21-21v-3a24,24,0,0,0-24,24Zm0,.93c0-.31,0-.62,0-.93h-3c0,.36,0,.71,0,1.07ZM307.94,1140H622.52v-3H307.94Zm-.94-6.5a21.09,21.09,0,0,1-.52,4.67l2.92.66a23.41,23.41,0,0,0,.6-5.33Zm-21-21a21,21,0,0,1,21,21h3a24,24,0,0,0-24-24Zm-21,21a21,21,0,0,1,21-21v-3a24,24,0,0,0-24,24Zm.52,4.67a21.09,21.09,0,0,1-.52-4.67h-3a23.41,23.41,0,0,0,.6,5.33ZM86,1140H264.06v-3H86Zm-47-47a47,47,0,0,0,47,47v-3a44,44,0,0,1-44-44Zm0-152v152h3V941Zm47-47a47,47,0,0,0-47,47h3a44,44,0,0,1,44-44Zm177.52,0H86v3H263.52ZM286,915.5a21,21,0,0,1-21-20.07l-3,.14a24,24,0,0,0,24,22.93Zm21-20.07a21,21,0,0,1-21,20.07v3a24,24,0,0,0,24-22.93ZM622.52,894h-314v3h314ZM645,915.5a21,21,0,0,1-21-20.07l-3,.14a24,24,0,0,0,24,22.93Zm21-20.07a21,21,0,0,1-21,20.07v3a24,24,0,0,0,24-22.93ZM981.52,894h-314v3h314ZM1004,915.5a21,21,0,0,1-21-20.07l-3,.14a24,24,0,0,0,24,22.93Zm21-20.07a21,21,0,0,1-21,20.07v3a24,24,0,0,0,24-22.93ZM1139,894H1026.48v3H1139Zm45-45a45,45,0,0,1-45,45v3a48,48,0,0,0,48-48Zm0-119.5V849h3V729.5Zm-45-45a45,45,0,0,1,45,45h3a48,48,0,0,0-48-48Zm-112.55,0H1139v-3H1026.45Zm-22.45-21a21,21,0,0,1,21,19.6l3-.2a24,24,0,0,0-24-22.4Zm-21,19.6a21,21,0,0,1,21-19.6v-3a24,24,0,0,0-24,22.4Zm-315.6,1.4h314.1v-3H667.45ZM645,663.5a21,21,0,0,1,21,19.6l3-.2a24,24,0,0,0-24-22.4Zm-21,19.6a21,21,0,0,1,21-19.6v-3a24,24,0,0,0-24,22.4Zm-1.5,1.4v-3"/><path class="cls-5" d="M640.18,1396.5v-15.4h2.36L652.2,1393H651V1381.1h2.84v15.4h-2.36l-9.66-11.86H643v11.86Zm22.83.15a6.51,6.51,0,0,1-3.21-.77,5.81,5.81,0,0,1-2.22-2.15,5.89,5.89,0,0,1-.82-3.1,5.82,5.82,0,0,1,.82-3.11,5.68,5.68,0,0,1,2.22-2.13,7.12,7.12,0,0,1,6.44,0,5.6,5.6,0,0,1,2.23,2.11,6.39,6.39,0,0,1,0,6.23,5.63,5.63,0,0,1-2.23,2.15A6.54,6.54,0,0,1,663,1396.65Zm0-2.35a3.66,3.66,0,0,0,1.8-.44,3.06,3.06,0,0,0,1.24-1.28,4,4,0,0,0,.46-1.95,4,4,0,0,0-.46-2,3.12,3.12,0,0,0-1.24-1.28A3.61,3.61,0,0,0,663,1387a3.69,3.69,0,0,0-1.8.44,3.16,3.16,0,0,0-1.23,1.28,3.87,3.87,0,0,0-.47,2,3.94,3.94,0,0,0,.47,1.95,3.1,3.1,0,0,0,1.23,1.28A3.64,3.64,0,0,0,663,1394.3Zm15.57-9.68a5.47,5.47,0,0,1,2.5.55,4,4,0,0,1,1.76,1.69,5.81,5.81,0,0,1,.64,2.91v6.73h-2.75v-6.38a3.21,3.21,0,0,0-.75-2.33,2.63,2.63,0,0,0-2-.77,3.66,3.66,0,0,0-1.72.39,2.8,2.8,0,0,0-1.17,1.19,4.36,4.36,0,0,0-.39,2v5.94h-2.75v-11.75h2.62v3.17l-.46-1a4,4,0,0,1,1.78-1.71A5.84,5.84,0,0,1,678.58,1384.62Zm7.8,6.91v-2.29h6v2.29Zm12.69,5.12a10.63,10.63,0,0,1-2.84-.37,7.27,7.27,0,0,1-2.14-1l1.06-2.09a7.49,7.49,0,0,0,1.89.84,7.62,7.62,0,0,0,2.2.33,3.76,3.76,0,0,0,1.87-.35,1.07,1.07,0,0,0,.6-1,.8.8,0,0,0-.4-.72,3,3,0,0,0-1-.4q-.64-.13-1.44-.24c-.51-.08-1-.17-1.56-.29a5.6,5.6,0,0,1-1.4-.55,2.74,2.74,0,0,1-1.43-2.62,3.06,3.06,0,0,1,.63-1.93,4,4,0,0,1,1.78-1.28,7.44,7.44,0,0,1,2.75-.46,11.52,11.52,0,0,1,2.4.26,6.7,6.7,0,0,1,2,.75l-1.06,2.09a5.36,5.36,0,0,0-1.69-.68,7.42,7.42,0,0,0-1.68-.2,3.68,3.68,0,0,0-1.87.38,1.1,1.1,0,0,0-.59.94.87.87,0,0,0,.4.79,3,3,0,0,0,1,.42q.63.15,1.41.27a10.42,10.42,0,0,1,1.56.28,6.27,6.27,0,0,1,1.41.55,2.6,2.6,0,0,1,1,1,2.85,2.85,0,0,1,.4,1.6,3,3,0,0,1-.66,1.92,4.12,4.12,0,0,1-1.83,1.27A8,8,0,0,1,699.07,1396.65Zm12.11,0a4.2,4.2,0,0,1-3-1,3.89,3.89,0,0,1-1.06-3v-10.53h2.75v10.47a1.86,1.86,0,0,0,.42,1.3,1.62,1.62,0,0,0,1.21.46,2.39,2.39,0,0,0,1.54-.49l.77,2a3.25,3.25,0,0,1-1.19.6A5.39,5.39,0,0,1,711.18,1396.65Zm-6-9.61v-2.2H713v2.2Zm15.77,9.61a6.51,6.51,0,0,1-3.21-.77,5.81,5.81,0,0,1-2.22-2.15,6,6,0,0,1-.81-3.1,5.91,5.91,0,0,1,.81-3.11,5.68,5.68,0,0,1,2.22-2.13,7.14,7.14,0,0,1,6.45,0,5.64,5.64,0,0,1,2.22,2.11,6.39,6.39,0,0,1,0,6.23,5.67,5.67,0,0,1-2.22,2.15A6.58,6.58,0,0,1,721,1396.65Zm0-2.35a3.7,3.7,0,0,0,1.81-.44,3,3,0,0,0,1.23-1.28,3.93,3.93,0,0,0,.46-1.95,3.87,3.87,0,0,0-.46-2,3,3,0,0,0-1.23-1.28A3.64,3.64,0,0,0,721,1387a3.7,3.7,0,0,0-1.81.44,3.3,3.3,0,0,0-1.23,1.28,3.87,3.87,0,0,0-.46,2,3.93,3.93,0,0,0,.46,1.95,3.23,3.23,0,0,0,1.23,1.28A3.67,3.67,0,0,0,721,1394.3Zm15.42,2.35a5.28,5.28,0,0,1-2.62-.66,4.78,4.78,0,0,1-1.87-2,7.34,7.34,0,0,1-.68-3.38,7.58,7.58,0,0,1,.66-3.39,4.55,4.55,0,0,1,1.84-2,5.34,5.34,0,0,1,2.67-.66,6.08,6.08,0,0,1,3.05.75,5.46,5.46,0,0,1,2.12,2.09,6.19,6.19,0,0,1,.79,3.17,6.34,6.34,0,0,1-.79,3.19,5.53,5.53,0,0,1-2.12,2.09A6.18,6.18,0,0,1,736.39,1396.65Zm-6.52,4.12v-16h2.62v2.77l-.09,3.13.22,3.12v7Zm6.21-6.47a3.51,3.51,0,0,0,1.76-.44,3.15,3.15,0,0,0,1.25-1.28,3.93,3.93,0,0,0,.46-1.95,3.87,3.87,0,0,0-.46-2,3.21,3.21,0,0,0-1.25-1.28,3.51,3.51,0,0,0-1.76-.44,3.61,3.61,0,0,0-1.78.44,3.23,3.23,0,0,0-1.26,1.28,3.87,3.87,0,0,0-.46,2,3.93,3.93,0,0,0,.46,1.95,3.17,3.17,0,0,0,1.26,1.28A3.61,3.61,0,0,0,736.08,1394.3Zm19.93,2.35a6.35,6.35,0,0,1-3.06-.74,5.65,5.65,0,0,1-2.11-2.12,6.89,6.89,0,0,1,0-6.33,5.43,5.43,0,0,1,2.11-2.09,6.25,6.25,0,0,1,3.06-.75,5.28,5.28,0,0,1,2.64.66,4.57,4.57,0,0,1,1.85,2,7.43,7.43,0,0,1,.68,3.39,7.62,7.62,0,0,1-.66,3.38,4.52,4.52,0,0,1-1.83,2A5.35,5.35,0,0,1,756,1396.65Zm.33-2.35a3.51,3.51,0,0,0,1.76-.44,3.15,3.15,0,0,0,1.25-1.28,3.84,3.84,0,0,0,.49-1.95,3.77,3.77,0,0,0-.49-2,3.21,3.21,0,0,0-1.25-1.28,3.51,3.51,0,0,0-1.76-.44,3.61,3.61,0,0,0-1.78.44,3.37,3.37,0,0,0-1.26,1.28,3.87,3.87,0,0,0-.46,2,3.93,3.93,0,0,0,.46,1.95,3.3,3.3,0,0,0,1.26,1.28A3.61,3.61,0,0,0,756.34,1394.3Zm3.56,2.2v-2.77l.11-3.13-.22-3.12v-7.3h2.73v16.32Zm11.76.15a7.23,7.23,0,0,1-3.43-.77,5.8,5.8,0,0,1-2.27-2.15,6.57,6.57,0,0,1,0-6.21,5.66,5.66,0,0,1,2.16-2.13,6.38,6.38,0,0,1,3.14-.77,6.14,6.14,0,0,1,3.06.75,5.35,5.35,0,0,1,2.11,2.11,6.36,6.36,0,0,1,.77,3.21,2.89,2.89,0,0,1,0,.4,3,3,0,0,1,0,.42h-9.79v-1.83h8.34l-1.08.57a3.45,3.45,0,0,0-.42-1.78,3.2,3.2,0,0,0-1.21-1.21,3.41,3.41,0,0,0-1.74-.44,3.56,3.56,0,0,0-1.78.44,3.2,3.2,0,0,0-1.19,1.23,3.77,3.77,0,0,0-.41,1.83v.44a3.62,3.62,0,0,0,.48,1.87,3.23,3.23,0,0,0,1.36,1.25,4.42,4.42,0,0,0,2,.44,4.78,4.78,0,0,0,1.78-.31,3.7,3.7,0,0,0,1.41-1l1.47,1.69a5.23,5.23,0,0,1-2,1.43A7.23,7.23,0,0,1,771.66,1396.65Zm11.07-.15-5-11.75h2.86l4.33,10.36h-1.41l4.49-10.36h2.64l-5,11.75Zm14.8.15a7.2,7.2,0,0,1-3.43-.77,5.74,5.74,0,0,1-2.27-2.15,6.06,6.06,0,0,1-.79-3.1,6.18,6.18,0,0,1,.77-3.11,5.66,5.66,0,0,1,2.16-2.13,6.38,6.38,0,0,1,3.14-.77,6.17,6.17,0,0,1,3.06.75,5.42,5.42,0,0,1,2.11,2.11,6.46,6.46,0,0,1,.77,3.21c0,.12,0,.25,0,.4s0,.28,0,.42h-9.79v-1.83h8.33l-1.07.57a3.45,3.45,0,0,0-.42-1.78,3.2,3.2,0,0,0-1.21-1.21,3.41,3.41,0,0,0-1.74-.44,3.56,3.56,0,0,0-1.78.44,3.13,3.13,0,0,0-1.19,1.23,3.78,3.78,0,0,0-.42,1.83v.44a3.53,3.53,0,0,0,.49,1.87,3.17,3.17,0,0,0,1.36,1.25,4.38,4.38,0,0,0,2,.44,4.8,4.8,0,0,0,1.79-.31,3.66,3.66,0,0,0,1.4-1l1.48,1.69a5.31,5.31,0,0,1-2,1.43A7.23,7.23,0,0,1,797.53,1396.65Zm8.16-.15v-16.32h2.75v16.32Zm11.64.15a6.51,6.51,0,0,1-3.21-.77,5.81,5.81,0,0,1-2.22-2.15,5.89,5.89,0,0,1-.82-3.1,5.82,5.82,0,0,1,.82-3.11,5.68,5.68,0,0,1,2.22-2.13,7.14,7.14,0,0,1,6.45,0,5.64,5.64,0,0,1,2.22,2.11,6.39,6.39,0,0,1,0,6.23,5.67,5.67,0,0,1-2.22,2.15A6.58,6.58,0,0,1,817.33,1396.65Zm0-2.35a3.7,3.7,0,0,0,1.81-.44,3,3,0,0,0,1.23-1.28,3.93,3.93,0,0,0,.46-1.95,3.87,3.87,0,0,0-.46-2,3.1,3.1,0,0,0-1.23-1.28,3.88,3.88,0,0,0-3.59,0,3.3,3.3,0,0,0-1.23,1.28,3.87,3.87,0,0,0-.46,2,3.93,3.93,0,0,0,.46,1.95,3.23,3.23,0,0,0,1.23,1.28A3.64,3.64,0,0,0,817.33,1394.3Zm15.41,2.35a5.27,5.27,0,0,1-2.61-.66,4.72,4.72,0,0,1-1.87-2,7.34,7.34,0,0,1-.69-3.38,7.58,7.58,0,0,1,.66-3.39,4.57,4.57,0,0,1,1.85-2,5.33,5.33,0,0,1,2.66-.66,6.09,6.09,0,0,1,3.06.75,5.37,5.37,0,0,1,2.11,2.09,6.09,6.09,0,0,1,.8,3.17,6.24,6.24,0,0,1-.8,3.19,5.43,5.43,0,0,1-2.11,2.09A6.19,6.19,0,0,1,832.74,1396.65Zm-6.51,4.12v-16h2.62v2.77l-.09,3.13.22,3.12v7Zm6.21-6.47a3.54,3.54,0,0,0,1.76-.44,3.21,3.21,0,0,0,1.25-1.28,3.93,3.93,0,0,0,.46-1.95,3.87,3.87,0,0,0-.46-2,3.28,3.28,0,0,0-1.25-1.28,3.54,3.54,0,0,0-1.76-.44,3.68,3.68,0,0,0-1.79.44,3.28,3.28,0,0,0-1.25,1.28,3.87,3.87,0,0,0-.46,2,3.93,3.93,0,0,0,.46,1.95,3.21,3.21,0,0,0,1.25,1.28A3.68,3.68,0,0,0,832.44,1394.3Zm23.7-9.68a5.37,5.37,0,0,1,2.49.55,3.93,3.93,0,0,1,1.71,1.69,6,6,0,0,1,.62,2.91v6.73h-2.75v-6.38a3.45,3.45,0,0,0-.68-2.33,2.47,2.47,0,0,0-2-.77,3.28,3.28,0,0,0-1.61.39,2.83,2.83,0,0,0-1.07,1.17,4.47,4.47,0,0,0-.38,2v6h-2.75v-6.38a3.45,3.45,0,0,0-.68-2.33,2.47,2.47,0,0,0-2-.77,3.21,3.21,0,0,0-1.6.39,2.79,2.79,0,0,0-1.08,1.17,4.47,4.47,0,0,0-.38,2v6h-2.75v-11.75h2.62v3.13l-.46-.93a4.07,4.07,0,0,1,1.72-1.74,5.58,5.58,0,0,1,2.59-.59,5,5,0,0,1,2.86.81,3.93,3.93,0,0,1,1.63,2.47l-1.08-.38a4.53,4.53,0,0,1,1.89-2.11A5.81,5.81,0,0,1,856.14,1384.62Zm13.88,12a7.2,7.2,0,0,1-3.43-.77,5.74,5.74,0,0,1-2.27-2.15,6.57,6.57,0,0,1,0-6.21,5.64,5.64,0,0,1,2.15-2.13,6.44,6.44,0,0,1,3.15-.77,6.19,6.19,0,0,1,3.06.75,5.42,5.42,0,0,1,2.11,2.11,6.46,6.46,0,0,1,.77,3.21c0,.12,0,.25,0,.4a3,3,0,0,1,0,.42h-9.78v-1.83H874l-1.07.57a3.45,3.45,0,0,0-.42-1.78,3.27,3.27,0,0,0-1.21-1.21,3.41,3.41,0,0,0-1.74-.44,3.53,3.53,0,0,0-1.78.44,3.13,3.13,0,0,0-1.19,1.23,3.78,3.78,0,0,0-.42,1.83v.44a3.53,3.53,0,0,0,.49,1.87,3.17,3.17,0,0,0,1.36,1.25,4.38,4.38,0,0,0,2,.44,4.75,4.75,0,0,0,1.78-.31,3.7,3.7,0,0,0,1.41-1l1.48,1.69a5.27,5.27,0,0,1-2,1.43A7.21,7.21,0,0,1,870,1396.65Zm14.83-12a5.44,5.44,0,0,1,2.5.55,4,4,0,0,1,1.76,1.69,5.81,5.81,0,0,1,.64,2.91v6.73H887v-6.38a3.26,3.26,0,0,0-.74-2.33,2.67,2.67,0,0,0-2-.77,3.66,3.66,0,0,0-1.72.39,2.78,2.78,0,0,0-1.16,1.19,4.22,4.22,0,0,0-.4,2v5.94h-2.75v-11.75h2.62v3.17l-.46-1a4,4,0,0,1,1.78-1.71A5.84,5.84,0,0,1,884.85,1384.62Zm12.81,12a4.21,4.21,0,0,1-3-1,3.92,3.92,0,0,1-1-3v-10.53h2.75v10.47a1.91,1.91,0,0,0,.41,1.3,1.64,1.64,0,0,0,1.21.46,2.37,2.37,0,0,0,1.54-.49l.77,2a3.21,3.21,0,0,1-1.18.6A5.47,5.47,0,0,1,897.66,1396.65Zm-6-9.61v-2.2h7.83v2.2Zm11.06,4.36-.53-10.3h3.26l-.55,10.3Zm1.1,5.25a1.7,1.7,0,0,1-1.27-.5,1.65,1.65,0,0,1-.51-1.21,1.57,1.57,0,0,1,.51-1.19,1.7,1.7,0,0,1,1.27-.51,1.68,1.68,0,0,1,1.26.51,1.62,1.62,0,0,1,.48,1.19,1.7,1.7,0,0,1-.48,1.21A1.67,1.67,0,0,1,903.84,1396.65Z"/><circle class="cls-6" cx="970.5" cy="1388.5" r="38.5"/><circle class="cls-7" cx="950.5" cy="1388.5" r="4.5"/><circle class="cls-7" cx="969.5" cy="1388.5" r="4.5"/><circle class="cls-7" cx="988.5" cy="1388.5" r="4.5"/></svg>