<svg version="1.2" xmlns="http://www.w3.org/2000/svg" viewBox="0 0 600 348" width="600" height="348"><style>.a{fill:#85970c}.b{fill:#fff}</style><path class="a" d="m142.5 324.3v-19c0-5.1-2.2-7.3-7.3-7.3h-32c-5.2 0-8.1-1.6-8.1-6v-37.9c0-4.4 2.7-6.4 8.1-6.4h32c5.1 0 7.3-2.2 7.3-7.3v-19.2c0-5.1-2.2-7.3-7.3-7.3h-38.8c-28 0-40.8 10.9-40.8 34.2v49.4c0 23.1 12.8 34.1 40.8 34.1h38.8c5.1 0 7.3-2.2 7.3-7.3zm22.1 7.3h24.7c5.1 0 7.3-2.2 7.3-7.3v-33.8h23.4v33.8c0 5.1 2.2 7.3 7.3 7.3h24.7c5.1 0 7.3-2.2 7.3-7.3v-103.1c0-5.1-2.2-7.3-7.3-7.3h-24.7c-5.1 0-7.3 2.2-7.3 7.3v32.9h-23.4v-32.9c0-5.1-2.2-7.3-7.3-7.3h-24.7c-5.1 0-7.3 2.2-7.3 7.3v103.1c0 5.1 2.2 7.3 7.3 7.3zm213.7-85.9c0-20.1-9.2-34.2-50.9-34.2-41.7 0-51.1 14.1-51.1 34.2v54.2c0 20.1 9.4 34.1 51.1 34.1 41.7 0 50.9-14 50.9-34.1zm-62.7 5.8c0-3.7 2.9-5.8 11.8-5.8 9 0 11.8 2.1 11.8 5.8v42.8c0 3.8-2.8 5.8-11.8 5.8-9.1 0-11.8-2-11.8-5.8zm164.8 72.8v-18.9c0-5.1-2.2-7.3-7.3-7.3h-32c-5.2 0-8.1-1.6-8.1-6.1v-37.8c0-4.5 2.7-6.4 8.1-6.4h32c5.1 0 7.3-2.2 7.3-7.3v-19.3c0-5.1-2.2-7.3-7.3-7.3h-38.8c-28 0-40.7 11-40.7 34.2v49.5c0 23.1 12.7 34 40.7 34h38.8c5.1 0 7.3-2.2 7.3-7.3zm104.1-22.3v-16.7c0-18.7-10.4-25.6-26.3-28l-23.7-3.1c-1.9-0.2-2.8-1.6-2.8-3.5 0-1.8 0.9-3.2 2.7-3.2h37c5.1 0 7.4-2.2 7.4-7.3v-19c0-5.1-2.3-7.3-7.4-7.3h-44.5c-21.8 0-34.5 10.5-34.5 29.6v16.7c0 18.8 10.1 25.6 26.1 28l23.8 3.3c1.9 0.2 2.7 1.5 2.7 3.9 0 1.6-0.8 3-2.5 3h-42.8c-5.1 0-7.3 2.2-7.3 7.3v18.6c0 5.1 2.2 7.3 7.3 7.3h50.3c21.6 0 34.5-10.5 34.5-29.6z"/><path class="b" d="m24.8 181.8h68.7c25.3 0 36.5-10 36.5-31.2v-16.4c0-16.9-6.2-25.8-19.1-28.8 4.8-3.8 7.2-9.7 7.2-18.3v-8.6c0-19.7-11.1-29.2-36.2-29.2h-57.1c-5.7 0-8.2 2.5-8.2 8.3v116c0 5.7 2.5 8.2 8.2 8.2zm49-98.5c3.6 0 5.1 1.8 5.1 5.4v5c0 3.6-1.5 5.4-5.1 5.4h-13.4v-15.8zm8.1 46.9c3.4 0 5 1.6 5 5.2v7c0 3.6-1.4 5.4-5 5.4h-21.5v-17.6zm122.4-41l7.7 24.9h-23.1l7.7-24.9-0.1 0.2c0.5-1 0.8-1.9 1.7-1.9h4.5c0.9 0 1.3 0.9 1.8 1.9zm-52.4 92.6h26.3c5.7 0 8.2-2.5 8.2-8.3v-23.2h28.1v23.2c0 5.6 2.7 8.3 8.8 8.3h27c5.7 0 8.2-2.5 8.2-8.3v-47.2c0-7.4-2.1-16.5-7.1-29.4l-15.6-40.6c-1.6-4.8-5-7-10.6-7h-48.1c-5.7 0-9.1 2.2-10.7 7.2l-15.6 40.4c-5 12.9-7.2 22-7.2 29.4v47.2c0 5.8 2.5 8.3 8.3 8.3zm225.5-33.3v-18.8c0-21.1-11.6-28.8-29.5-31.5l-26.7-3.6c-2.2-0.2-3.2-1.8-3.2-3.9 0-2 1-3.6 3-3.6h41.7c5.7 0 8.3-2.5 8.3-8.3v-21.3c0-5.7-2.6-8.2-8.3-8.2h-50.1c-24.5 0-38.8 11.8-38.8 33.3v18.8c0 21.1 11.4 28.8 29.3 31.5l26.9 3.8c2.1 0.1 3 1.6 3 4.3 0 1.7-0.9 3.4-2.9 3.4h-48.1c-5.7 0-8.2 2.5-8.2 8.2v20.9c0 5.8 2.5 8.3 8.2 8.3h56.6c24.3 0 38.8-11.8 38.8-33.3zm24.2 33.3h83c5.7 0 8.3-2.5 8.3-8.3v-20.9c0-5.7-2.6-8.2-8.3-8.2h-47.6v-11.9h33.1c5.7 0 8.3-2.5 8.3-8.2v-19.1c0-5.8-2.6-8.3-8.3-8.3h-33.1v-10.2h47.6c5.7 0 8.3-2.5 8.3-8.2v-21c0-5.7-2.6-8.2-8.3-8.2h-83c-5.8 0-8.3 2.5-8.3 8.2v116c0 5.8 2.5 8.3 8.3 8.3z"/></svg>